<?xml version="1.0" encoding="utf-8"?>
<!-- Generator: Adobe Illustrator 16.0.0, SVG Export Plug-In . SVG Version: 6.00 Build 0)  -->
<!DOCTYPE svg PUBLIC "-//W3C//DTD SVG 1.1//EN" "http://www.w3.org/Graphics/SVG/1.1/DTD/svg11.dtd">
<svg version="1.1" id="Layer_1" xmlns="http://www.w3.org/2000/svg" xmlns:xlink="http://www.w3.org/1999/xlink" x="0px" y="0px"
	 width="813.165px" height="256px" viewBox="0 0 813.165 256" enable-background="new 0 0 813.165 256" xml:space="preserve">
<g>
	<path fill="#BEC4CE" d="M128.166,33.548c-55.966,0-101.334,45.368-101.334,101.333S72.2,236.215,128.166,236.215
		c55.964,0,101.333-45.369,101.333-101.334S184.129,33.548,128.166,33.548z M127.933,202.006
		c-37.073-0.13-67.021-30.286-66.893-67.357c0.128-37.072,30.288-67.02,67.359-66.891c37.071,0.129,67.02,30.286,66.89,67.357
		C195.16,172.187,165.003,202.135,127.933,202.006z"/>
	<radialGradient id="SVGID_1_" cx="128.165" cy="134.8818" r="92.6655" gradientUnits="userSpaceOnUse">
		<stop  offset="0" style="stop-color:#93949A"/>
		<stop  offset="0.3894" style="stop-color:#919299"/>
		<stop  offset="0.5296" style="stop-color:#8A8C93"/>
		<stop  offset="0.6296" style="stop-color:#7F828A"/>
		<stop  offset="0.7105" style="stop-color:#6E737D"/>
		<stop  offset="0.7797" style="stop-color:#585F6C"/>
		<stop  offset="0.8399" style="stop-color:#3D4757"/>
		<stop  offset="0.871" style="stop-color:#2C384A"/>
		<stop  offset="0.9444" style="stop-color:#2E394B"/>
		<stop  offset="0.9708" style="stop-color:#353E4E"/>
		<stop  offset="0.9896" style="stop-color:#404653"/>
		<stop  offset="1" style="stop-color:#4B4E57"/>
	</radialGradient>
	<path fill="url(#SVGID_1_)" d="M128.49,42.217C77.312,42.039,35.678,83.383,35.5,134.56s41.167,92.809,92.345,92.986
		c51.177,0.179,92.808-41.165,92.986-92.341C221.009,84.027,179.666,42.395,128.49,42.217z M127.925,204.214
		c-38.292-0.134-69.226-31.282-69.093-69.572c0.133-38.292,31.284-69.225,69.575-69.091c38.291,0.133,69.223,31.282,69.09,69.573
		C197.364,173.414,166.215,204.347,127.925,204.214z"/>
	<circle fill="none" stroke="#BDC6DB" stroke-width="3" stroke-miterlimit="10" cx="128.165" cy="134.881" r="69.666"/>
	<circle fill="none" stroke="#BDC6DB" stroke-width="2" stroke-miterlimit="10" cx="128.165" cy="134.881" r="92.212"/>
	<circle fill="none" stroke="#8D9299" stroke-width="2" stroke-miterlimit="10" cx="128.165" cy="134.881" r="93.453"/>
	<circle fill="none" stroke="#8D9299" stroke-width="2" stroke-miterlimit="10" cx="128.165" cy="134.881" r="101.453"/>
	<circle fill="none" stroke="#8D9299" stroke-width="2" stroke-miterlimit="10" cx="128.165" cy="134.667" r="97.453"/>
	<g>
		<polygon fill="#BEC4CE" points="124.508,47.573 131.821,47.573 130.209,60.19 126.401,60.19 		"/>
		<polygon fill="#BEC4CE" points="69.731,71.076 75.321,66.362 82.224,77.047 79.313,79.502 		"/>
		<polygon fill="#BEC4CE" points="41.754,123.723 43.06,116.528 55.187,120.367 54.506,124.114 		"/>
		<polygon fill="#BEC4CE" points="55.107,181.411 51.411,175.102 63.112,170.114 65.037,173.4 		"/>
		<polygon fill="#BEC4CE" points="102.013,217.72 95.161,215.168 101.073,203.906 104.643,205.235 		"/>
		<polygon fill="#BEC4CE" points="161.301,215.119 154.448,217.671 151.555,205.285 155.125,203.955 		"/>
		<polygon fill="#BEC4CE" points="204.99,174.98 201.293,181.29 191.221,173.522 193.146,170.236 		"/>
		<polygon fill="#BEC4CE" points="213.245,116.391 214.551,123.585 201.849,124.253 201.168,120.506 		"/>
		<polygon fill="#BEC4CE" points="180.9,66.271 186.49,70.986 177.125,79.592 174.213,77.137 		"/>
		<polygon fill="#BEC4CE" points="124.508,47.573 131.821,47.573 130.209,60.19 126.401,60.19 		"/>
	</g>
</g>
<g>
	<g>
		<path fill="#3490CE" d="M328.038,115.033c-0.591-14.426-11.469-21.638-27.077-21.638c-9.577,0-23.175,4.021-23.175,17.972
			c0,13.598,14.426,15.845,28.732,18.801c14.426,2.956,28.851,6.621,28.851,23.412c0,17.499-16.79,23.766-29.678,23.766
			c-19.746,0-35.827-8.158-35.591-29.914h5.202c-1.063,18.445,13.717,25.422,30.389,25.422c10.168,0,24.476-4.611,24.476-19.273
			c0-14.308-14.426-16.791-28.851-19.746c-14.308-2.957-28.732-6.385-28.732-22.467c0-16.198,15.017-22.465,28.377-22.465
			c17.618,0,31.452,7.567,32.28,26.131H328.038z"/>
		<path fill="#3490CE" d="M352.154,128.513h0.236c1.892-6.03,8.75-15.371,22.111-15.371c18.682,0,27.313,14.78,27.313,31.925
			c0,18.445-8.75,31.688-27.313,31.688c-10.051,0-18.563-4.257-22.111-14.071h-0.236v34.408h-4.493v-82.531h4.493V128.513z
			 M397.322,145.066c0-13.834-6.503-28.023-22.82-28.023c-16.199,0-22.229,13.598-22.229,28.023s5.084,27.787,22.229,27.787
			C390.345,172.854,397.322,160.083,397.322,145.066z"/>
		<path fill="#3490CE" d="M457.147,164.104c0,3.547,0,7.33,4.021,7.33c0.827,0,1.892-0.117,3.311-0.354v3.784
			c-1.301,0.236-2.483,0.473-3.666,0.473c-7.094,0-8.158-3.902-8.158-8.868v-3.192h-0.236c-2.838,7.213-10.996,13.479-22.584,13.479
			c-11.47,0-20.337-4.375-20.337-17.146c0-14.188,12.297-17.145,22.347-17.973c20.102-1.418,20.929-2.719,20.929-12.65
			c0-2.721-3.074-11.943-16.908-11.943c-10.878,0-18.091,5.676-18.682,16.199h-4.493c0.591-13.361,8.867-20.101,23.175-20.101
			c10.642,0,21.283,3.311,21.283,15.845V164.104z M452.654,140.81c-3.547,4.021-13.243,3.548-21.993,4.729
			c-10.642,1.183-16.672,4.967-16.672,14.07c0,7.332,5.321,13.244,15.963,13.244c20.456,0,22.702-17.5,22.702-20.693V140.81z"/>
		<path fill="#3490CE" d="M517.21,133.361c-0.828-10.761-9.578-16.318-20.574-16.318c-15.253,0-23.411,13.48-23.411,27.314
			c0,16.436,7.686,28.496,23.411,28.496c11.352,0,19.628-7.805,21.165-18.919h4.493c-2.01,14.544-12.533,22.82-25.658,22.82
			c-19.746,0-27.904-15.489-27.904-32.397s9.932-31.216,27.904-31.216c13.125,0,23.767,6.385,25.067,20.22H517.21z"/>
		<path fill="#3490CE" d="M534.588,145.539c-0.237,14.308,7.33,27.314,22.347,27.314c11.47,0,19.628-6.858,21.757-18.092h4.493
			c-2.365,14.189-11.824,21.993-26.25,21.993c-17.735,0-27.077-13.952-26.84-30.743c-0.237-16.672,8.513-32.87,26.84-32.87
			c19.037,0,27.551,15.017,26.723,32.397H534.588z M579.165,141.637c-0.236-12.77-8.276-24.594-22.229-24.594
			c-13.479,0-21.401,12.534-22.347,24.594H579.165z"/>
		<path fill="#2C3E50" d="M596.305,155.117c0.709,11.232,9.104,17.736,20.101,17.736c7.922,0,19.273-2.365,19.273-12.889
			c0-10.287-10.405-11.824-20.811-13.953c-10.523-2.128-20.929-4.848-20.929-17.263c0-12.061,11.706-15.607,21.993-15.607
			c12.888,0,22.466,5.558,22.466,19.392h-4.493c-0.118-10.996-7.805-15.49-17.973-15.49c-8.277,0-17.5,3.074-17.5,11.706
			c0,9.696,10.405,11.233,20.22,13.361c12.061,2.247,21.52,5.085,21.52,17.854c0,13.125-13.125,16.79-23.767,16.79
			c-13.834,0-24.239-7.449-24.594-21.638H596.305z"/>
		<path fill="#2C3E50" d="M655.539,90.912v36.654h0.237c3.074-9.104,12.297-14.425,21.756-14.425
			c21.401,0,21.638,17.145,21.638,24.594v37.601h-4.493v-38.428c0-6.268-0.709-19.865-17.263-19.865
			c-13.598,0-21.875,10.523-21.875,25.422v32.871h-4.493V90.912H655.539z"/>
		<path fill="#2C3E50" d="M713.473,103.092v-12.18h4.493v12.18H713.473z M713.473,175.336v-60.775h4.493v60.775H713.473z"/>
		<path fill="#2C3E50" d="M737.83,128.513h0.236c1.892-6.03,8.75-15.371,22.111-15.371c18.682,0,27.313,14.78,27.313,31.925
			c0,18.445-8.75,31.688-27.313,31.688c-10.051,0-18.563-4.257-22.111-14.071h-0.236v34.408h-4.493v-82.531h4.493V128.513z
			 M782.998,145.066c0-13.834-6.503-28.023-22.82-28.023c-16.199,0-22.229,13.598-22.229,28.023s5.084,27.787,22.229,27.787
			C776.021,172.854,782.998,160.083,782.998,145.066z"/>
	</g>
</g>
<g>
</g>
<g>
</g>
<g>
</g>
<g>
</g>
<g>
</g>
<g>
</g>
<g>
</g>
<g>
</g>
<g>
</g>
<g>
</g>
<g>
</g>
<g>
</g>
<g>
</g>
<g>
</g>
<g>
</g>
</svg>
