<?xml version="1.0" encoding="utf-8"?>
<!-- Generator: Adobe Illustrator 16.0.0, SVG Export Plug-In . SVG Version: 6.00 Build 0)  -->
<!DOCTYPE svg PUBLIC "-//W3C//DTD SVG 1.1//EN" "http://www.w3.org/Graphics/SVG/1.1/DTD/svg11.dtd">
<svg version="1.1" id="Layer_1" xmlns="http://www.w3.org/2000/svg" xmlns:xlink="http://www.w3.org/1999/xlink" x="0px" y="0px"
	 width="216.013px" height="220.899px" viewBox="0 0 216.013 220.899" enable-background="new 0 0 216.013 220.899"
	 xml:space="preserve">
<g>
	<path fill="#BEC4CE" d="M106.823,8.973C50.857,8.973,5.489,54.341,5.489,110.306S50.857,211.64,106.823,211.64
		c55.964,0,101.333-45.369,101.333-101.334S162.787,8.973,106.823,8.973z M106.591,177.431
		c-37.073-0.13-67.021-30.286-66.893-67.357c0.128-37.072,30.288-67.021,67.359-66.891c37.071,0.129,67.02,30.286,66.89,67.358
		C173.818,147.611,143.661,177.56,106.591,177.431z"/>
	<path fill="#4B4E57" d="M107.147,17.642c-51.178-0.178-92.812,41.166-92.99,92.343c-0.178,51.177,41.167,92.809,92.345,92.986
		c51.177,0.179,92.809-41.165,92.986-92.341C199.666,59.452,158.324,17.82,107.147,17.642z M106.583,179.639
		c-38.292-0.134-69.226-31.282-69.093-69.572c0.133-38.292,31.284-69.225,69.575-69.091c38.29,0.133,69.224,31.283,69.09,69.574
		C176.021,148.839,144.873,179.771,106.583,179.639z"/>
	<circle fill="none" stroke="#BDC6DB" stroke-width="3" stroke-miterlimit="10" cx="106.823" cy="110.306" r="69.666"/>
	<circle fill="none" stroke="#BDC6DB" stroke-width="2" stroke-miterlimit="10" cx="106.823" cy="110.306" r="92.212"/>
	<circle fill="none" stroke="#8D9299" stroke-width="2" stroke-miterlimit="10" cx="106.823" cy="110.306" r="93.453"/>
	<circle fill="none" stroke="#8D9299" stroke-width="2" stroke-miterlimit="10" cx="106.823" cy="110.306" r="101.453"/>
	<circle fill="none" stroke="#8D9299" stroke-width="2" stroke-miterlimit="10" cx="106.823" cy="110.092" r="97.453"/>
	<g>
		<polygon fill="#BEC4CE" points="103.166,22.998 110.479,22.998 108.867,35.615 105.059,35.615 		"/>
		<polygon fill="#BEC4CE" points="48.389,46.501 53.979,41.787 60.881,52.472 57.97,54.927 		"/>
		<polygon fill="#BEC4CE" points="20.412,99.148 21.718,91.953 33.844,95.792 33.164,99.539 		"/>
		<polygon fill="#BEC4CE" points="33.765,156.836 30.068,150.526 41.77,145.539 43.695,148.825 		"/>
		<polygon fill="#BEC4CE" points="80.671,193.145 73.818,190.593 79.731,179.331 83.3,180.66 		"/>
		<polygon fill="#BEC4CE" points="139.959,190.544 133.105,193.096 130.213,180.71 133.782,179.381 		"/>
		<polygon fill="#BEC4CE" points="183.647,150.405 179.951,156.715 169.879,148.947 171.804,145.661 		"/>
		<polygon fill="#BEC4CE" points="191.902,91.815 193.208,99.01 180.506,99.678 179.826,95.931 		"/>
		<polygon fill="#BEC4CE" points="159.559,41.696 165.148,46.41 155.783,55.017 152.871,52.562 		"/>
		<polygon fill="#BEC4CE" points="103.166,22.998 110.479,22.998 108.867,35.615 105.059,35.615 		"/>
	</g>
</g>
<g>
</g>
<g>
</g>
<g>
</g>
<g>
</g>
<g>
</g>
<g>
</g>
<g>
</g>
<g>
</g>
<g>
</g>
<g>
</g>
<g>
</g>
<g>
</g>
<g>
</g>
<g>
</g>
<g>
</g>
</svg>
